<svg xmlns="http://www.w3.org/2000/svg" width="100" height="100" version="1"><path d="M62 58l2 2 1 1v4c1 2 3 1 4-2v-4l-3-3-2-3-1 1-1 2v2zM42 92l3-2v2l-1 2-1 2-1 1 1 1 2-1 2-1 2-1c1 0 2-1 2-3l1-1 1 1h1v-2-3-8l-2-4-1 1-3 2c-2 2-4 5-5 9l-1 4v1zm7-86l2 1h-3l1-1zM26 40h2l2 1-1 2-1 3 5-1h1l1 1 2-2 2-2c1-1 2 0 3 1l1 1h1v-4h1l2 1 2 1-1-3v-3h1l2 1h3l-1-7v-1l2 1h2v-2h1l1-1-1-6V11l2-2 2-3 1-1 1-1-4 1-4 1 2-2 2-2h-5L45 4l-8 5-1 1c0 2-1 3-3 3l-5-1-1-1 1 3c1 3 6 3 12 0l3-1h1l-2 1-4 2c0 1 0 2 1 1l5-1h1l-2 1-3 3-2 1h5l1-1-1 1c0 2-4 6-7 8v1l1 1v1l-1 1c-2 2-8 6-10 6v1zM12 16l2 1 1 1 5 3 1 1-1 1-2 2h-2v3l1 1h-2l-1-1 1 2c1 1 2 2 3 1l1-1h1l2-3 1-3 5 6 3 3 2 1 1-1c2-1 2-1 1-2h-1l-1-1 1-1 2-1-1-1-4-3a68 68 0 0 0-6-5l-1-2 1-4 1-2-1-2-4-2v1c2 1 2 2 1 2l-1 1v1l1 1c-1 1-2 0-2-1l-1-1h-5l1 1 2 1 1 1 1 1v1l-2-2h-2l-3 1c-1 0-2 1-1 2l1-1zm-2 28h1l4-1 1 4v1l-2 1-1 2c0 1 0 2 1 1l4 1v6c0 2 0 2-2 2-1 1-1 1 1 1h4v-1c2 0 3-2 3-3l-1-1-1-3v-1h2a159 159 0 0 0 17-3l1 1v1l-2 1h-1v1l1 1-2 1c-4 0-5 1-7 4l-1 8v6h1v-1 2h4v4l-1 2h-2l-3 1-1-1-6-2-3 1-2 2v1c1-1 3-2 4-1v1l-1 2-2 2-2 3 3-2 2-1v2l-1 1-1 1v3l1-1 3-1c2 0 3 0 5-3l3-1h3c1-1 1-1 2 1l3 1 2-3-1-2c-1-2-1-2 2-3l3-2 1-4-2-5-1-1h1v1l1-1v-1l3-3 2 4 3 5 2 6h1v-2c0-1 1-1 2 1v1l2-2 1-2 2 2 3 6v1h-2l-5-1-2 1-3 2 2 1h3c1 0 1 1-1 2l-2 3v1l2-1 2-1v2l-2 2v3l1-1c0-2 2-2 5-3 4 0 6-1 9-4 1-2 1-2 4-2h2v-3-3c0-2 0-2-2-3l-1-2-1-3-3-4-2-5h-4c-2 0-4-3-4-7l-1-3-1-2v-1l-3 2c-1 1-2 1-2-1v-1l-3 1v-2l-1-2-3 2-2 1 1-4v-2l-1 1-2-1h4v3l5-1v3h1l1-1 1-1v4h1l4-2v2l2-3 1-1 2 2c1 2 2 2 2 1v-3l1 4 1 6 3 5c1 1 2 0 2-1h1l3 4 3 4 1-1v-1l3 3 4 2-2-5-1-3-1-3-2-9-1-3-1-4h1c0 1 0 1 0 0l1-3-1-6a264 264 0 0 1-2-9h1l2 1v-4l-1-5c0-3 0-5-2-7l-3-6c0-5-2-9-4-10h-5l-4 7-2 10 1 5 2 7-3 1-4 1-3 1-1 1 1 6-5-1-2-1 1 1v5a2591 2591 0 0 1-5 0v3l-4-2-1-2-1 1-2 3-2 2H22v-2l1-5v-3c0-2-1-2-3-2h-2l1 1h1l-1 2-3 1h-3l-1 1-1 1-1 2z"/></svg>