<svg xmlns="http://www.w3.org/2000/svg" width="100" height="100" version="1"><g fill-rule="evenodd"><path d="M78 79H23h-1l7-6-1-3c-2-3-5-8-5-13 0-6 3-13 4-14 2-6 8-16 8-21 0-2-1-5-3-5-1 0-3 0-3 2l2 2c2 0 1 1 1 1-1 1-3 2-4 1-3 0-5-3-3-8 2-7 9-6 11-5 3 2 3 3 4 6h20c1-3 1-4 4-6 2-1 9-2 11 5 2 5 0 8-3 8-1 1-3 0-4-1 0 0-1-1 1-1l2-2c0-2-2-2-3-2-2 0-3 3-3 5 0 5 6 15 8 21 1 1 4 8 4 14 0 5-3 10-5 13l-1 3 7 6zM40 20l-1 3c-1 7-5 13-6 15-1 3-5 11-3 21 3 13 11 14 13 14l1-1V21v-1h-4zm7 53h2V21l-1-1h-1 1-1v53zm7 0V21l-1-1h-1l-1 1v52h3zm6-53h-3l-1 1v51l1 1c3 0 10-1 13-14 3-10-2-18-3-21l-6-15-1-3zM28 81h12l1 1c0 2-3 4-6 5l-4 1-3 3h-1l-1-4v-3l2-3"/><path d="M24 45c-6-1-13 9-7 17 3 5-2 6-1 8l3 1c2 0 6-1 5-4-4-9-4-13 0-22M51 1c2 4 5 9 6 14H43c1-5 4-10 6-14l1-1 1 1M55 81l1 1v6l-2 6c-2 5-3 6-4 6l-4-6-2-6v-6l2-1h9M72 81H60l-1 1c0 2 3 4 6 5l5 1 2 3h2l1-4v-3l-3-3M39 33c0-3 1-10 3-12l1 1v26l-1 1c-1 0-3-8-3-16M33 45c4 0 8 6 9 7h1v10l-1 1h-2c-1 0-2-4-7-4l-2-4v-5c0-3 1-5 2-5M42 70l1-1v-5h-5l-2 2v2l2 2h4M42 72h1v-1h-2l-1 1h2M61 33c0-3-1-10-3-12v28c1 0 3-8 3-16M67 45c-3 0-8 6-9 7v11h2c1 0 2-4 7-4l2-4v-5c0-3-1-5-2-5M58 70v-6h4l2 2v2l-2 2h-4M58 72v-1h1s2 0 1 1h-2M76 45c6-1 13 9 7 17-3 5 2 6 1 8l-3 1c-2 0-6-1-5-4 4-9 4-13 0-22"/></g></svg>