<svg xmlns="http://www.w3.org/2000/svg" width="100" height="100"><path fill-rule="evenodd" d="M0 18.9v62.4H99.6c.4 0 .4 0 .4-.4V52 19.1c0-.4 0-.4-.2-.4H.4c-.4 0-.4 0-.4.2zm38.9 46.5l.2.2 4 10 1.3 3.2v.3H28.3V79l2.3-12.2c0-.2.1-.3.2-.3h.1l1.6.1c1.6 0 3.2-.2 4.8-.6l1.5-.6h.2m-17-2.2c2 1.4 4 2.3 6.2 2.9.1 0 .2 0 .2.2v.1L25.9 79c0 .1 0 .2-.3.2H7.3l.2-.3 12.3-13.4 1.9-2 .1-.2m19.3 1.2l.1-.2c1.9-1 3.5-2.4 4.9-4l.1-.2 23.6 19H47.2l-.4-.1a7025.6 7025.6 0 0 0-5.7-14.5M15.4 54.3c.9 2.7 2.4 5.1 4.4 7.1l.3.3-.2.2L4.6 78.7l-.3.4h-.1H4 3.7h-.2-1c-.2 0-.3 0-.2-.2v-.2V73 58.5c0-.2 0-.4.3-.4L15 54h.2l.2.2zM50 52L68 55.2l18.2 3.1 11.2 2c.3 0 .3 0 .3.4v18.1c0 .3 0 .3-.2.3H74h-.3c-.2 0-.4 0-.5-.2L56.5 65.4l-8.7-7-.2-.2v-.3c1.1-1.7 1.9-3.6 2.3-5.6 0-.1 0-.2.2-.2M2.4 44.5h.1l9.1 1.3 2.8.4c.2 0 .2 0 .2.2a17 17 0 0 0 .1 5.3l-.2.2-12 3.8h-.2v-4.2-6.7-.3M32.5 33c8.4 0 15.5 7 15.6 15.3V48.8A15.6 15.6 0 1 1 32.3 33h.1m17.5 12c0-.1 0-.2.2-.2l5-1.4L94 32l3.4-1h.2v27l-.3-.1-18.6-3.2-24.4-4.2-4-.7c-.1 0-.2 0-.2-.2A17.9 17.9 0 0 0 50 45M2.3 41.9V26.1v-.3l1 .8L17.7 38l.2.3-.2.3c-1.1 1.6-2 3.4-2.5 5.3 0 .2-.1.2-.2.2a.7.7 0 0 1-.1 0l-7.4-1-5-.8c-.2 0-.2 0-.2-.3m20.3-21h14.6l-.2 1-1.5 9-.2.2h-.1a18 18 0 0 0-8 .6H27l-.1-.2-4.2-10.3v-.3m51.6 0h23.1c.3 0 .3 0 .3.4v7.1c0 .3 0 .4-.2.4L51 42.3l-1.6.5c-.2 0-.2 0-.2-.2a17.6 17.6 0 0 0-3.8-6.2v-.2l13.1-15 .2-.3h15.6M37.6 31.5l1.8-10.2c0-.4 0-.4.4-.4H55.7l-12 14-.2-.1a17.8 17.8 0 0 0-5.7-3l-.2-.3M20.3 21.2a3346.2 3346.2 0 0 0 4.5 11.2c0 .1 0 .2-.2.2a17.5 17.5 0 0 0-5.2 3.8l-.2-.1-10.2-8-6.5-5.1-.2-.2v-.3-.7-.8c0-.3 0-.3.2-.3h8.7a10907.2 10907.2 0 0 1 9 .3z"/></svg>