<svg xmlns="http://www.w3.org/2000/svg" width="100" height="100" version="1"><path d="M42 99c-11-2-24-9-30-16A49 49 0 0 1 0 46 49 49 0 0 1 66 3c16 5 27 16 32 32 2 4 2 6 2 12 0 9-1 15-3 21-4 10-14 21-24 26-9 5-22 7-31 5zm9-5l1-2 1 2 2 2c2 0 2-1 3-2v-1 1l2 1h1l-1-6c-2-7-2-8-1-8h1l3-2h3l-1 1v3l1 1h3c0 1 0 2-2 3l1 3 2-1h2l-4-7c-2-4-2-4 0-5l1-2 3 4h-3l2 4 3 3v-2c-2 0-2-1-1-2l3 2 2 1-6-8-2-2 1-1 2-1V50 28c1-1 7 1 10 2 4 2 8 6 11 11l2 3-1-2a46 46 0 0 0-19-29l-3-2v7c0 5 0 6-1 5 0-3-1-2-1 1l1 4h-2c-5 1-4 1-4-8v-9h3l2-1-12-4 2 1 4 4-1 8v8l-1-8v-8h-7v8l-1 8-1-8v-8h-4V5h-3c-3 0-8 2-11 4l-1 1v9l1 8 1-8v-8h7v8l1 9 1-9v-8h4l-1 1h-2v16h-4V12h-5v8c0 8 0 8-2 8-1 1 0 1 2 3 4 2 7 5 6 5l2 4 2 6 1 2v-2-1c1 1 1-6 1-16V12h2v17h5V12h5v17h1c2 0 2 0-1 1-3 2-7 5-7 7v1l-4 8 1 2-1 1-1 2 1 3 1 3 2 5c4 5 5 3 4-5v-4h-4l-3-1 1-2c6-1 6-1 6-9l-1-5 1-2 11-5h3l-1 2-1 5-2 2v-2h-8v5l1 5 4-3 3-2 2-3 1-2v37h-2c-6-1-14-6-17-12l-2-3v-2l-1-2-2 2c0 3-4 9-5 9l-1-6v-6h7v-1c0-2 0-2-3-3l-3-1c1 0 1 0 0 0l-1-6 1-5 1-1-5-4c-2-2-7-3-9-3v4c1 4 1 4 6 4l4-1v10l-6-6-2-1-2-2-1-2v38l2-1c6 0 14-5 17-12l1-2v7h-1c-2 0-2 0-3 5a330 330 0 0 0-2 11h1v7l-1 7 7 1h2v-2zm7-6a1216 1216 0 0 0-4-5v2-2c0-2-2-2-2 0l-1 1v-2l-1-10v-8l2 1 3 10a512 512 0 0 0 3 13zm-3-1v-1 1zM31 59v-6h8v12h-8v-6zm0-14v-4l1 1 7 5 2 1H31v-3zm16-5l-2-3h4v6l-2-3zM37 93l3-12-2-1h-1a255 255 0 0 1-3 3c2-5 1-6-1-4a1368 1368 0 0 1-4 10l2-2-1 2c0 3 0 3 2 4h5zm-2-3l1-3a245 245 0 0 0-1 3zm29 3l-1-1v2l1-1zm0-6c0-1 0-1 0 0l1 1-1-1zm-39-3h2l2-1v-4l1-1h2v-2h-3v-1l-2-2h-1V27h-1c-5 0-11 3-15 7-6 6-8 15-5 24 2 7 9 13 18 15h3l-5 5c-4 4-5 6-3 6l2-2 3-2 1 1-1 2-2 4a4573 4573 0 0 1 4-3zm38-1l-1-2 1 2 1 3-1-3zm16 0l-1-2-1-1c0-2 1-1 3 0l3 3a46 46 0 0 0 12-26l-1 3c-4 7-12 13-19 13-2 0-2 0-1 2l1 2-1-1h-2l3 4c3 3 3 4 4 3zM68 59v-7h-4l-4 1v12h8v-6zm-8-11v-1l-2 1h2zm8-3v-3l-3 2-3 3c-2 1-2 1 2 1h4v-3zm-14-8l-2-1h-2v7l2-2 2-4zM34 21v-8c-2 0-5 8-6 12v2l2 1h2c2 1 2 0 2-7zm-3-6l2-3 1-1h-7v12l1-3 3-5zm40 0v-3h-4l4 6v-3z"/></svg>