<?xml version="1.0" encoding="UTF-8" standalone="no"?>
<!-- Generator: Adobe Illustrator 15.1.0, SVG Export Plug-In . SVG Version: 6.00 Build 0)  -->

<svg
   version="1.1"
   id="Ebene_1"
   x="0px"
   y="0px"
   width="80"
   height="80"
   viewBox="214.766 152.918 79.999998 79.999999"
   enable-background="new 214.766 152.918 128.563 520.919"
   xml:space="preserve"
   xmlns="http://www.w3.org/2000/svg"
   xmlns:svg="http://www.w3.org/2000/svg"><defs
   id="defs1" />
<g
   id="Hintergrund">
</g>
<g
   id="Hilfslinien">
</g>
<g
   id="Guides"
   display="none">
</g>
<g
   id="Vordergrund"
   transform="matrix(0.15357597,0,0,0.15357597,211.91089,129.43516)">
	<g
   id="g1">
		<path
   d="m 274.767,290.207 -0.067,49.844 c -16.523,4.08 -24.82,9.452 -31.483,15.164 -3.196,2.72 -1.156,5.236 1.562,5.236 4.558,0 -2.106,-2.244 13.736,-6.8 17,-4.896 16.319,-2.177 16.252,5.031 v 30.191 c 0,2.652 -5.101,3.06 -6.256,8.296 -1.021,4.692 5.358,7.559 4.147,12.58 -0.735,3.047 -4.223,3.666 -4.284,6.8 -0.062,3.16 3.943,3.847 4.08,7.003 0.152,3.547 -4.368,4.408 -4.42,7.957 -0.048,3.203 3.656,4.285 3.399,7.479 -0.22,2.723 -3.062,3.411 -3.399,6.121 -0.391,3.137 2.488,4.522 2.584,7.684 0.109,3.68 -3.262,5.31 -2.925,8.977 0.312,3.4 3.942,4.404 3.943,7.819 0.002,3.619 -4.316,4.542 -4.42,8.159 -0.11,3.877 4.41,4.965 4.557,8.84 0.141,3.711 -3.777,5.135 -3.536,8.84 0.174,2.649 2.354,3.676 2.517,6.324 0.187,3.056 -2.632,4.43 -2.38,7.48 0.2,2.43 2.304,3.344 2.38,5.778 0.099,3.131 -3.218,4.15 -3.399,7.276 -0.185,3.156 2.821,4.532 2.584,7.685 -0.193,2.582 -2.444,3.532 -2.584,6.119 -0.181,3.369 3.312,4.583 3.399,7.956 0.096,3.663 -3.543,5.04 -3.536,8.704 0.008,3.918 4.246,5.266 4.08,9.18 -0.134,3.181 -3.496,4.307 -3.265,7.48 0.188,2.565 2.769,3.347 2.925,5.916 0.196,3.23 -3.659,4.242 -3.604,7.479 0.052,3.036 3.396,3.969 3.399,7.004 0.003,3.19 -3.815,4.086 -3.739,7.276 0.074,3.133 3.938,3.869 3.943,7.004 0.004,2.611 -2.716,3.508 -2.721,6.119 -0.005,2.989 3.356,3.816 3.536,6.801 0.229,3.802 -5.004,4.854 -4.557,8.636 0.318,2.691 3.382,3.277 3.536,5.983 0.15,2.656 -2.479,3.606 -2.721,6.256 -0.229,2.514 1.16,3.81 1.36,6.324 0.285,3.591 -2.448,1.496 -1.021,9.18 2.243,11.562 0.544,17.681 9.044,20.195 7.956,2.381 3.282,-12.709 6.256,-20.535 1.119,-2.945 3.14,-4.329 3.061,-7.479 -0.085,-3.355 -3.842,-4.328 -3.876,-7.685 -0.034,-3.272 3.312,-4.349 3.535,-7.614 0.196,-2.869 -1.975,-4.27 -1.836,-7.142 0.129,-2.655 2.461,-3.815 2.177,-6.459 -0.279,-2.602 -3.253,-3.17 -3.399,-5.781 -0.147,-2.606 2.611,-3.51 2.72,-6.118 0.115,-2.775 -2.441,-3.888 -2.516,-6.664 -0.083,-3.104 2.753,-4.377 2.72,-7.48 -0.037,-3.479 -3.753,-4.684 -3.604,-8.16 0.148,-3.474 4.393,-4.344 4.284,-7.818 -0.103,-3.291 -4.419,-3.985 -4.284,-7.276 0.111,-2.728 3.04,-3.412 3.399,-6.119 0.436,-3.274 -2.834,-4.723 -2.72,-8.022 0.115,-3.373 3.615,-4.591 3.399,-7.957 -0.212,-3.295 -4.214,-4.041 -4.216,-7.345 -0.003,-3.253 3.768,-4.036 4.079,-7.274 0.351,-3.628 -3.758,-5.078 -3.399,-8.704 0.293,-2.975 3.52,-3.812 3.536,-6.8 0.018,-2.965 -3.417,-3.836 -3.399,-6.801 0.019,-3.292 3.878,-4.009 4.283,-7.275 0.472,-3.789 -3.728,-5.376 -3.399,-9.18 0.271,-3.168 3.538,-4.166 3.536,-7.345 -0.002,-3.549 -4.356,-4.407 -4.42,-7.956 -0.07,-3.934 5.199,-4.771 5.101,-8.703 -0.09,-3.503 -4.771,-4.334 -4.421,-7.82 0.301,-2.973 3.96,-3.304 4.421,-6.256 0.545,-3.499 -3.963,-4.849 -3.536,-8.363 0.308,-2.532 2.735,-3.25 3.061,-5.78 0.479,-3.745 -4.537,-5.11 -3.944,-8.84 0.43,-2.695 3.468,-3.2 3.74,-5.916 0.326,-3.245 -3.82,-4.219 -3.74,-7.479 0.084,-3.388 4.148,-4.147 4.421,-7.479 0.271,-3.808 -5.713,-5.576 -4.217,-9.044 1.496,-3.4 3.536,-2.924 3.604,-5.848 0.067,-4.08 -4.487,-4.692 -4.487,-6.393 0,0 0.067,-20.194 0,-29.783 0.067,-7.071 -0.748,-9.928 16.252,-5.031 15.844,4.556 9.18,6.8 13.734,6.8 2.722,0 4.762,-2.516 1.564,-5.236 -6.664,-5.712 -14.96,-11.084 -31.483,-15.164 v -50.048 c 0,-1.156 0.477,-2.38 1.292,-2.38 9.384,0 11.017,-2.652 13.531,-3.604 2.04,-0.816 15.641,0.204 17.68,2.584 2.04,2.38 7.208,4.556 9.588,4.42 2.382,-0.136 9.182,-1.02 5.102,4.76 -3.536,5.1 2.72,7.956 6.8,8.5 5.916,0.884 8.296,-8.84 2.992,-13.804 -5.305,-4.964 -11.221,-7.48 -25.16,-10.54 -13.938,-3.061 -29.239,-3.536 -29.239,-3.536 0,0 -0.067,0.068 -1.292,-0.408 -0.952,-0.408 -0.748,-1.224 -0.748,-1.224 l -0.067,-41.14 c 0,0 2.788,-1.021 2.855,-5.304 0.067,-3.74 -2.04,-4.896 -2.04,-4.896 v -45.423 l 3.265,-7.616 c 0,0 1.155,-1.7 1.155,-3.4 0,-1.7 -1.496,-2.584 -1.496,-2.584 l -4.42,-4.896 v -4.964 c 0,0 -0.483,-0.969 -1.021,-1.36 -0.354,-0.259 -0.594,-0.371 -1.021,-0.476 h -5.779 c -0.593,0.024 -0.984,0.221 -1.359,0.68 -0.428,0.524 -0.533,1.052 -0.34,1.7 v 6.8 c -2.381,2.38 -3.062,1.496 -4.965,5.576 -1.155,2.584 3.265,6.8 5.983,11.424 v 43.995 c -1.859,1.732 -2.584,3.536 -2.243,6.12 0.203,1.972 0.828,3.103 2.243,4.42 l 0.068,41.479 c 0,0 -0.068,0.816 -0.681,1.156 -1.225,0.68 -1.973,0.476 -1.973,0.476 0,0 -15.3,0.476 -29.239,3.536 -13.939,3.06 -19.855,5.576 -25.159,10.54 -5.305,4.964 -2.924,14.688 2.992,13.804 4.08,-0.544 10.336,-3.399 6.8,-8.5 -4.08,-5.78 2.72,-4.896 5.1,-4.76 2.38,0.136 7.548,-2.04 9.588,-4.42 2.04,-2.38 15.641,-3.4 17.681,-2.584 2.517,0.952 4.147,3.604 13.531,3.604 0.818,-0.004 1.498,1.221 1.363,2.241 z"
   id="path1" />
	</g>
</g>
</svg>
