<?xml version="1.0" encoding="UTF-8" standalone="no"?>
<!-- Created with Inkscape (http://www.inkscape.org/) -->

<svg
   version="1.1"
   id="svg1"
   width="80"
   height="80"
   viewBox="0 0 80 80"
   xmlns="http://www.w3.org/2000/svg"
   xmlns:svg="http://www.w3.org/2000/svg">
  <defs
     id="defs1">
    <clipPath
       clipPathUnits="userSpaceOnUse"
       id="clipPath1">
      <path
         id="path1"
         style="fill:#ffffff;stroke-width:7.55906;stroke-linecap:round;stroke-linejoin:round"
         d="M -12.046853,-23.022205 H 109.89123 c 4.25831,0 7.68647,3.428164 7.68647,7.686467 V 248.02445 c 0,4.2583 -3.42816,7.68647 -7.68647,7.68647 H -12.046853 c -4.258303,0 -7.686467,-3.42817 -7.686467,-7.68647 V -15.335738 c 0,-4.258303 3.428164,-7.686467 7.686467,-7.686467 z" />
    </clipPath>
  </defs>
  <g
     id="g1">
    <path
       style="fill:#000000;stroke-width:0.465326"
       d="m 18.129658,76.88992 c 0,-2.94756 0.03785,-3.05604 0.724376,-2.0759 1.276198,1.82203 1.512271,1.10647 0.375652,-1.13864 -0.919531,-1.81631 -1.100028,-2.8759 -1.100028,-6.45759 0,-4.46583 0.179511,-4.91377 2.219906,-5.53949 0.87011,-0.26683 1.609252,0.20236 4.187938,2.65845 1.722241,1.64036 3.649083,3.33102 4.28187,3.75702 1.60608,1.08123 4.438374,1.00223 5.596711,-0.15611 1.130229,-1.13023 0.998822,0.043 1.146611,-10.23718 0.137531,-9.56666 -0.121988,-10.70251 -2.445299,-10.70251 -1.36201,0 -3.078621,1.04638 -8.17226,4.98151 -3.195451,2.46866 -4.954171,3.08871 -4.954171,1.74661 0,-0.39441 1.470363,-2.54073 3.267475,-4.7696 3.787278,-4.69718 5.108401,-7.16148 5.108401,-9.52876 0,-4.00568 -1.607871,-5.12113 -6.754715,-4.68606 l -3.482467,0.29437 0.0064,-6.00119 0.0064,-6.00119 8.919209,-5.11236 C 36.43572,12.54824 38.101615,11.44434 37.598494,10.93913 37.429349,10.76929 32.546516,13.36872 26.747751,16.71566 20.948984,20.06259 16.114198,22.801 16.00378,22.801 c -0.110413,0 -0.200754,-2.17741 -0.200754,-4.83868 v -4.83868 l 1.976159,-1.16704 c 1.086888,-0.64188 2.133873,-1.06958 2.326633,-0.95045 0.19276,0.11913 0.350472,1.25124 0.350472,2.51578 0,1.26454 0.101553,2.29917 0.225673,2.29917 0.12412,0 1.275803,-0.64615 2.559295,-1.43589 l 2.333623,-1.4359 V 10.24149 7.53365 l 2.060498,-1.20753 c 1.133274,-0.66414 2.169809,-1.20753 2.303411,-1.20753 0.133601,0 0.305711,1.14824 0.382465,2.55165 l 0.139554,2.55164 2.442963,-1.39774 2.442964,-1.39774 V 4.6818 c 0,-2.61425 0.07443,-2.79059 1.567235,-3.7132 C 37.775951,0.43587 38.614896,0 38.778297,0 c 0.1634,0 0.243383,15.31042 0.177738,34.02316 L 38.836684,68.04632 28.483171,74.02316 18.129658,80 Z M 29.202285,32.5651 c 1.517791,-0.92538 1.532032,-0.9669 1.395979,-4.06986 -0.123732,-2.82196 -0.239304,-3.14944 -1.157575,-3.28013 -1.473003,-0.20962 -2.469829,1.99942 -2.469829,5.47333 0,1.54828 0.157048,2.81428 0.348995,2.81332 0.191947,-9.3e-4 1.039041,-0.42245 1.88243,-0.93666 z M 50.935172,73.9491 40.69799,68.00292 40.578639,34.00146 C 40.512937,15.28421 40.638883,0 40.85882,0 c 0.219742,0 1.111038,0.47841 1.980657,1.06313 1.467324,0.98661 1.590896,1.2636 1.716889,3.84849 l 0.135764,2.78537 2.259448,1.27009 c 1.242696,0.69856 2.385634,1.2701 2.539863,1.2701 0.154228,0 0.280414,-1.16376 0.280414,-2.58614 V 5.06491 l 2.326159,1.30648 2.326159,1.3065 4.65e-4,2.83433 4.66e-4,2.83434 2.273272,1.23727 c 1.250315,0.6805 2.391547,1.23727 2.536087,1.23727 0.144544,0 0.325603,-1.14337 0.402359,-2.54082 l 0.139551,-2.54083 2.210301,1.37836 2.2103,1.37836 v 4.65242 c 0,2.55882 -0.162943,4.65241 -0.362094,4.65241 -0.199145,0 -3.91594,-2.04883 -8.259542,-4.55295 -14.126239,-8.14391 -13.355727,-7.74169 -13.178111,-6.87918 0.09448,0.4588 4.140288,3.08518 9.70126,6.2977 l 9.539192,5.5107 v 3.65081 3.6508 l -3.140953,4.35123 c -3.834458,5.31195 -3.966845,6.33613 -1.393339,10.77927 2.606389,4.4999 2.90565,5.36405 2.90565,8.39038 0,2.0534 -0.167182,2.77006 -0.646203,2.77006 -0.375968,0 -0.780367,-0.71515 -0.967025,-1.71013 -0.607002,-3.2356 -1.749799,-5.34052 -3.644681,-6.71317 -1.542188,-1.11715 -2.322584,-1.34855 -4.54806,-1.34855 -4.514568,0 -6.7305,2.76282 -4.851813,6.04924 0.365756,0.63983 0.672431,1.84386 0.6815,2.67563 0.01409,1.29212 0.183251,1.51231 1.161824,1.51231 0.718873,0 1.831493,-0.69305 2.988131,-1.8613 2.083581,-2.10451 3.707125,-2.39659 5.173063,-0.93066 1.168357,1.16836 1.166618,1.62534 -0.01066,2.80263 -0.74765,0.74765 -0.840019,1.13059 -0.448955,1.8613 0.377599,0.70555 0.976632,0.91999 2.569961,0.91999 1.500257,0 2.077597,0.18663 2.077597,0.67161 0,0.92705 -1.736842,2.05727 -3.706578,2.41199 -3.098396,0.55797 -4.475041,1.95627 -3.957217,4.01944 0.248717,0.99096 0.511029,1.07164 3.435417,1.05653 l 3.166138,-0.0163 -0.683493,1.04359 c -1.002339,1.53043 -0.410815,3.02297 1.971843,4.97538 1.832809,1.50185 2.100521,1.95097 2.100521,3.52391 0,0.99148 -0.157048,1.88805 -0.348995,1.99238 -0.191947,0.10433 -4.955726,-2.48609 -10.586176,-5.75649 z m 1.628642,-43.59934 c 0,-3.60495 -0.853305,-5.36523 -2.487894,-5.13228 -0.896215,0.12772 -1.016573,0.47393 -1.13951,3.27776 -0.136053,3.10296 -0.121811,3.14448 1.39598,4.06986 0.843389,0.51421 1.690482,0.93571 1.882429,0.93666 0.191948,9.3e-4 0.348995,-1.41744 0.348995,-3.152 z m 7.083599,42.73272 c -1.639356,-1.49732 -1.867798,-2.61895 -0.816491,-4.0089 1.289425,-1.70477 0.901888,-1.93894 -2.814203,-1.70045 l -3.526989,0.22634 0.153374,-1.34321 c 0.138778,-1.2154 0.461334,-1.44307 3.389643,-2.39246 3.65842,-1.1861 3.797102,-1.28342 4.209218,-2.95362 0.287199,-1.16396 0.204855,-1.22203 -2.124148,-1.49786 -2.930947,-0.34713 -3.320093,-0.66416 -1.947724,-1.5868 1.303672,-0.87645 1.329031,-1.9676 0.08256,-3.55224 -0.764392,-0.97177 -1.363953,-1.22607 -2.890677,-1.22607 -1.630084,0 -2.226352,0.29453 -3.878097,1.91559 -2.102199,2.06316 -2.969307,2.05489 -2.969307,-0.0283 0,-0.7233 -0.295018,-2.01673 -0.655597,-2.8743 -0.82125,-1.95318 -0.314202,-3.03761 1.841422,-3.93829 2.258153,-0.94351 3.810795,-0.81851 6.036848,0.48605 2.141191,1.25482 3.945161,4.54763 3.945161,7.20116 0,1.31956 0.121626,1.42605 1.628643,1.42605 h 1.628642 l -0.0028,-2.44296 c -0.0033,-3.28159 -0.59579,-5.21109 -2.612756,-8.51133 -1.05586,-1.72797 -1.774544,-3.5619 -1.907014,-4.86681 -0.195107,-1.92191 -0.01704,-2.37118 2.167114,-5.46758 1.308827,-1.85549 2.58363,-3.37362 2.832896,-3.37362 0.287344,0 0.453205,7.66342 0.453205,20.93969 0,11.51683 -0.162729,20.93969 -0.361624,20.93969 -0.198894,0 -1.036482,-0.61639 -1.861306,-1.36975 z m -30.15171,-5.61863 c -1.042666,-0.51612 -3.107501,-2.19113 -4.58852,-3.72224 -2.761266,-2.85467 -3.964472,-3.32595 -5.877463,-2.30215 -0.81097,0.43402 -0.900062,0.31887 -0.900062,-1.16332 v -1.64501 h 4.885928 c 2.947067,0 4.885927,-0.18465 4.885927,-0.46533 0,-0.28067 -1.93886,-0.46532 -4.885927,-0.46532 H 18.129658 V 46.83012 35.95977 l 2.442964,-0.29344 c 3.914903,-0.47023 5.275078,-0.35508 6.057201,0.5128 2.185831,2.4255 1.211029,5.88382 -3.197731,11.34464 -4.283574,5.30575 -4.534385,5.74613 -3.923154,6.88822 0.283123,0.52902 0.873847,0.95924 1.312719,0.95603 0.438872,-0.003 2.787219,-1.48285 5.21855,-3.2881 5.662018,-4.20403 6.739711,-4.77791 7.853281,-4.18195 1.175215,0.62896 1.506626,2.68138 0.957278,5.92839 -0.252248,1.49094 -0.323918,4.71929 -0.15927,7.17411 0.358565,5.346 0.130684,6.23926 -1.759844,6.8983 -0.795521,0.27732 -1.467505,0.50405 -1.493297,0.50385 -0.02579,-2e-4 -0.899984,-0.42265 -1.942652,-0.93877 z"
       id="path2" />
  </g>
</svg>
