<svg xmlns="http://www.w3.org/2000/svg" xmlns:xlink="http://www.w3.org/1999/xlink" width="100" height="34"><g id="a" transform="translate(0 .3)"><circle cx="60.8" cy="30.4" r="2.9" fill="#58585a" stroke="#000" stroke-linejoin="round" stroke-width=".1"/><path fill="#fff" fill-rule="evenodd" stroke-width=".8" d="M49.5 1.5v3.7h35.3V1.5H49.5z"/><path fill="#356db9" fill-rule="evenodd" stroke-width=".8" d="M84.8 0v5.2H49.5v25.4h47.3v-.3c.2-.6.5-1 1-1.4l1.2-1.2.1-.1h-3.5l-10.8-4H52.1v-16h32.7l5.3-1.3-.5-2 2.7-.5-.1-.3a4 4 0 0 0-1.5-1.4 14.2 14.2 0 0 0-5.8-2h-.1z"/><path fill="#fff" fill-rule="evenodd" stroke-linejoin="round" stroke-width=".8" d="M92.3 3.8l-2.7.5.5 2-5.3 1.4H52.1v16h32.7l10.8 3.9H99l.2-.3c.3-.6.5-1.3.6-2l-.1-1.3-.1-.3-3.5-3.5-3.9-16.4z"/><path fill="#58585a" fill-rule="evenodd" stroke-width=".8" d="M69.1 9v21.6H49.5v1.5H65v-.6h23.6v-.9h-5.8V9z"/><path fill-rule="evenodd" stroke="#000" stroke-linejoin="round" stroke-width=".1" d="M85.6 20.2v.3c0 .4.2.7.5 1l.5.1 12.3 2h.8l-.2-.3-1.7-2.7-.3-.3v-.1H85.5z"/><path fill="#ceeff8" fill-rule="evenodd" stroke-linejoin="round" stroke-width=".8" d="M93.3 7.7l-6.8 1.7v.1c-.6.2-.8.7-.8 1.2v9.5h10.5l-3-12.5z"/><path fill-rule="evenodd" stroke-linejoin="round" stroke-width=".8" d="M76.2 9.6h6.1v17.8h-6z"/><path fill="#ceeff8" fill-rule="evenodd" stroke-linejoin="round" stroke-width=".8" d="M77 10.3h4v15.6h-4z"/><path fill-rule="evenodd" stroke-linejoin="round" stroke-width=".8" d="M69.7 9.6h6v17.8h-6z"/><path fill="#ceeff8" fill-rule="evenodd" stroke-linejoin="round" stroke-width=".8" d="M71.1 10.3h4v15.6h-4z"/><path fill-rule="evenodd" stroke-linejoin="round" stroke-width=".8" d="M69.7 30.6v-2.8h12.6v2.8z"/><path fill="#bebfbe" fill-rule="evenodd" stroke-width=".8" d="M96.5 23.2L96 22l2.6 1 .3.5-2.5-.3"/><path fill-rule="evenodd" stroke-width=".8" d="M62.3 1.5v-1h12.8V0h4.4v1.4zM81.5 1.5v-.4h3.3v.4z"/><g fill="none" fill-rule="evenodd" stroke="#000"><path stroke-width=".144908" d="M96.7 20.2A36.3 36.3 0 0 0 93.6 9M95.8 15.4c.3 1.4 0 3 0 3"/><path stroke-width=".289816" d="M93.6 9.2l2.2 9.1"/></g><path fill="#4c4f52" fill-rule="evenodd" stroke="#000" stroke-width=".1" d="M88.6 31.5H90c.5 0 .5.6 0 .6-1.2 0-2.7 0-2.7-.6"/><path fill="none" stroke="#000" stroke-linejoin="round" stroke-width=".144908" d="M90 18.8l2.4-.9.2.1-.1.2-2.5.9-.1-.1v-.2z"/><path fill="none" fill-rule="evenodd" stroke="#000" stroke-width=".144908" d="M90 20.2v-.7h1M91.3 20.2l-.2-.7M91 19.5l1.4-.5M93 20.2v-.9l-.6-.3M90.9 18.5H89M88.4 20.2l.7-1.7M91.3 19.4l-.4-.7M90 19.5l1-.5M91.5 18.6l.4.6"/><path fill-rule="evenodd" stroke-width=".8" d="M355.2 215.9l.7.2h3.4l-1.5-1.5-1.4-.5z" transform="matrix(.36227 0 0 -.36227 -37.2 96.8)"/><path fill="none" fill-rule="evenodd" stroke="#000" stroke-width=".144908" d="M93 18.5h-1.3M92.4 19l.6-.5"/><path fill="#ceeff8" stroke-linecap="round" stroke-linejoin="round" stroke-width=".4" d="M54.7 10.3h10.4c.6 0 1 .4 1 1V21c0 .5-.4 1-1 1H54.7a1 1 0 0 1-1-1v-9.7c0-.6.5-1 1-1z"/><path d="M62 15.1c-.1 0-.2 0-.3.2l-.2.4c0 .2.1.4.5.7a17.6 17.6 0 0 1 1 1.1l-.1.2-.3.2s-.2 0-.3.2l-.8.5-.1-.2v-.2h-.2l-.1.1v-.1c0-.4-.2-.9-.5-1.2l-.1-.1.1-.2.2-.2c0-.2-.1-.2-.3 0l-.2.3-.2-.2-.8-1.2c0-.2-.8 0-1.4.4l-.6.5c-.4.4-.4.5-.2.7l.4.4.2.3-.1.1c-.3.4-.1.9.2.9h.2l-.1.2c-.4 0-1.1-.3-1.4-.4l-.3-.1-.2-.1-.2-.6v-.2c-.2 0-.3.2-.5.4 0 .2-.1.2-.3.3-.3 0-.6.2-.7.4v.5l.5.1.8.1c0 .3 1 .7 1.9.8h.3v.2c-.1.5-.5 1-1 1.3l-.2.2.7.1h.3l-.1.1h3.7s-.1 0 0 0l.1-.2.2-.2h-.2c-.3-.2-.4-.5-.4-1 0-.4.1-.7.4-.7.5 0 1.4-.5 1.8-.9.2 0 .2-.1.2-.2 0-.2 0-.2.2-.2h.4l.6.5.6.6s.3.3.4.2c.1-.1 0-.4 0-.4l-1-1.1c-.2-.2-.2-.2-.1-.4v-.2l-.1-.2-.1-.1-.1-.2v-.1h-.6s-.3-.1-1-1c-.4-.3-.5-.6-.5-.6h.2c.2 0 .3 0 .3-.2s-.2-.3-.4-.3zM60.4 17v.2c.2-.2.6.2.6.9v.2h-.2l-.3-.1-.2-.3v.5H60h1.1c.1 0 .1 0 0 0 0 .3-.3.5-.6.5l-.4.1-.6.3-.4-.1c-.2-.2-.2-.2 0-.1.2 0 .3 0 .5-.3l.3-.3c-.2 0-.3 0-.4.2-.2.2-.2.3-.4.3H59c-.1-.2-.2-.2-.1 0 0 .3.4.4.8.4h.3l.2-.1.2-.2H60.7v.2c-.3.2-.8.4-1.2.3-.3 0-.5-.2-.7-.4l-.4-.2h-.2c-.2-.2-.1-.4 0-.5.1 0 .1 0 0-.1-.1-.3 0-.6.4-.9l.8-.2a11.2 11.2 0 0 0 .9-.3zm3.6.3c.1 0 0 .3 0 .4-.1.1-.3.2-.3 0l.1-.3.2-.1zm-.3 0v.3l-.1.2v.2c-.1.2 0 .2 0 .1l.2.2c.2.1.1.2-.2.2l-.3-.1-.1-.4c-.2-.2-.1-.4.2-.5l.2-.2zm-4.4 0c-.1 0-.3.2-.3.4 0 .1 0 .2.1 0l.1-.1.2-.1c.1 0 0-.1 0-.1zm1.4.2c-.1 0-.2 0-.2.2h.2v-.2zm3.6 0v.2c-.1.2-.3.3-.4.3-.1 0-.1 0 0 0l.2-.3.2-.1zm-8.6.3v.2l.2.3v.3l-.2.3h-.2l-.6.2h-.4l.4-.2.2-.2-.3.1h-.3l.5-.1.2-.2-.6.1h-.1l.8-.3c.1 0 .2 0 .2-.2l.2-.3zm3.8 0v.1c-.2 0-.2.2 0 .2 0 .1.1 0 .2 0 0-.2 0-.2-.2-.2zm4.8.1c0 .2-.3.4-.5.3h.1l.3-.2h.1zm-5.7 0l-.2.1v.2c0 .1 0 .1.1 0h.2V18s-.1 0 0 0l-.1-.2zm4.3 0l.3.4c.2.3.2.3 0 .3l-.2-.2c-.2-.3-.2-.3-.1-.4zm-6.7.6v.2l-.2.4-.1.2c-.2 0-.1 0 0-.5.1-.3.2-.4.3-.3zm7.1.3zm-2.6.7V20.7c0 .4-.4 1-.4 1l-.2-.1-.2-.2-.3.1-.3.2-.2-.2-.2-.2.1-.2c.2-.4.3-.7.3-1.1v-.3c.1 0 .2 0 .2.3v.3l.3-.1.3-.1h.2l.3.1V20v-.4zm-.6.7l-.1.1c0 .1.2 0 .2 0l-.1-.1zm0 .5h-.1c0 .1.1.1.1 0zm-.1.4h-.1v.1c0 .1.1 0 .2 0l-.1-.1z"/><g fill="none" stroke="#000" stroke-width=".4"><path fill-rule="evenodd" stroke-width=".144908" d="M49.5 1.5h35.3M49.5 5.2h35.3M52 7.7h32.8M52 23.7h17.1M82.8 23.7h2M55 26.5h10M55 29.2h10M95.6 27.6H99M49.5 30.6h47.3M49.5 31.5h39.1M49.5 32H65v-.5M49.5 33.3h47M62.3.5h12.8M75.1 0h4.4M81.5 1.1h3.3M69.1 9h13.7M69.7 9.6h6M76.2 9.6h6.1M71.1 10.3h4M77 10.3h4M71.1 26h4M77 26h4M69.7 27.4h6M76.2 27.4h6.1M69.7 27.8h12.6M60.5 22.4H62M60.8 25.1h.9M60.8 26h.9M52.2 1.5v3.7"/><path stroke-linecap="round" stroke-linejoin="round" stroke-width=".144908" d="M54.7 10.3h10.4c.6 0 1 .4 1 1V21c0 .5-.4 1-1 1H54.7a1 1 0 0 1-1-1v-9.7c0-.6.5-1 1-1z"/><path fill-rule="evenodd" stroke-width=".144908" d="M53.8 13.5H66M53.8 13.9H66M55 26.5v2.7M60.5 22.4v1.3M62 22.4v1.3M60.8 25.1v.8M61.7 25.1v.8M65 26.5v2.7M69.1 9v21.6M69.7 9.6v17.8M71.1 10.3v15.6M75.1 10.3v15.6M77 10.3v15.6M81 10.3v15.6M76.2 9.6v17.8M75.7 9.6v17.8M69.7 27.8v2.8M82.3 9.6v17.8M82.3 27.8v2.8M62.3.5v1M75.1 0v.5M79.5 0v1.5M81.5 1.1v.4M84.8 0v30.6M82.8 9v21.6M85.6 20.2h11.8M93.3 7.7l-6.8 1.7c-.7.2-.8.9-.8 1.3l-.1 9.7c0 .5.2 1.1 1 1.2l13 2"/><path fill-rule="evenodd" stroke-width=".144908" d="M84.8 0c3.3.4 7.1 2.2 7.5 3.8l1 3.9 3 12.5"/><path fill-rule="evenodd" stroke-width=".144908" d="M84.8.5c3.2.3 5.5 2.2 6 3.7l3.8 16M84.8 5.2l7.5-1.4M84.8 7.7l7-1.8M90.6 8.3l2.8 11.9M84.8 23.7l10.8 3.9M95.1 20.2c1.7 2.3 2.2 5.5.5 7.4-1.8 1.9-4 3-4 3M97.4 20.2s1.8 2.3 2.3 3.5c.5 1.1.1 2.9-.6 3.9s-2 1.2-2.3 3M92.4 4.1l-1.1.2.8 3 1-.2M88.6 31.5v-.9M96.1 22l2.6 1M98.7 23l.3.5"/><path fill-rule="evenodd" stroke-width=".144908" d="M96.9 30.4h-1.6c-.3-.6-1-1-1.5-1.2M52 7.7v16"/></g><path fill="#fff" fill-rule="evenodd" stroke="#000" stroke-width=".1" d="M88.4 3.7c0-.1.4-.3.7-.3.3 0 .6 0 .7.2C90 4 91 8.6 91 9l-.1.3-1.5-.6z"/><path fill="#fff" fill-rule="evenodd" stroke="#000" stroke-width=".1" d="M90 9.2h.9l.2.2.4 2.9c0 .2-.2.3-.4.3h-.7zM90 9.2h-.5l.3 3.4.2.1h.4z"/></g><use width="100%" height="100%" transform="matrix(-1 0 0 1 100 0)" xlink:href="#a"/></svg>