<svg xmlns="http://www.w3.org/2000/svg" width="100" height="100" version="1"><path d="M49 45l6 13c1 3 3 3 5 0l1 9c0 5 1 10-1 15l-4 6-1 4v8c-2 0-3-1-3-2v-1c1-5 0-9-2-12-4-6-4-13-4-20 0-6 0-12 2-18l1-2zM36 30l-1 3h1l1-4 1 3c2-2 0-5 4-5 3 9-12 22-24 21 0-8 0-16 6-22l8-3-2 3 9-2c5-2 7-1 10 2l1 1v2l-1-1-3-1c-1-2-3-2-5-1l-10 2 3 1-2 2v1l3-3 1 1zM68 39l3 2v-2h2c-1-1-2-2-3-1s-2 0-3-2-2-4-5-3l1-2c3-3 4-3 7 1l1 3 3-1c0-3-5-2-5-6 3-1 6 1 8 3 5 6 6 13 5 21l-2 1c-8 0-15-4-20-11-2-2-2-5 0-7 1-2 2-2 4-1 1 1 3 2 0 4l3-1 1 4v-2zM49 14l2 5c-5 1-8-2-7-6 1-5 3-9 7-12h5l7 8c2 6 0 9-7 8l4-3-3 1 3-2-1-1-2 2-1-1 3-3-4 3V7l-1 5-2-5v1l1 4-1 4-1 1-2-3z"/><path d="M52 35l2-2c2-3 3-4 8-4-7 6-8 13-9 22-2-2-2-4-2-6l1-9v-1z"/><path d="M52 34c-2 0-2-1-2-3 1-3 4-6 8-6h5l3-1-2-3-1-1c2-2 4 0 5 2s1 4-1 5h-9c-3 0-5 2-5 5l-1 2c0 1 0 0 0 0zM44 30c5 1 7 6 6 10-4-2-5-5-6-10zM55 16c1 2 0 8-2 9h-1c-2-2 1-8 3-9zM35 24c2-3 4-3 5-1l-5 1z"/></svg>