<svg xmlns="http://www.w3.org/2000/svg" width="100" height="100"><defs><rect id="a" width="400" height="184" rx="7"/></defs><path fill-rule="evenodd" d="M49.8 27v46h48.5c1 0 1.7-.8 1.7-1.8V28.8c0-1-.8-1.7-1.8-1.7H49.8zm4.3 6h.1l40.2 28.3h.1l-.1.2H58.7l-.2.1V67H54l-.1-.1V33a.1.1 0 0 1 .1-.1zm4.5 8.9h-.1v14.7l.1.1h21.1v-.2L58.7 42zM46 33.1v5.3L20.2 56.6a.1.1 0 0 0 0 .2h21l.2-.1v-4.5-.1H46v9.4l-.1.1H5.6a.1.1 0 0 1 0-.2L45.8 33a.1.1 0 0 1 .2.1z"/><rect width="99.7" height="45.7" x=".2" y="27.2" fill="none" stroke="#000" stroke-width=".3" rx="1.8"/></svg>