<svg xmlns="http://www.w3.org/2000/svg" width="100" height="100" version="1"><path d="M10 96A12 12 0 0 1 0 82c1-6 6-10 12-10 4 0 6 1 9 3l3 9c0 4-1 6-3 9-3 3-7 4-11 3zm5-1c5-1 9-6 9-12 0-3-2-5-4-7-4-5-11-5-16 0-5 4-5 11 0 16 3 3 7 4 11 3zm-4 0c-3 0-5-1-7-3s-3-5-3-8c0-6 5-11 11-11 3 0 6 1 8 3s4 5 4 8c0 6-5 11-11 11h-2zm3-4c1-1 1-3-1-3l-2 2 1 1h2zm-3 0l-1-1c-2 0 1-2 4-4l4-1-3 3v1l1-1c3-1 4-3 3-4h-3c-4 1-8 4-8 6l3 1zm-2-4l7-4v-1l-2-2c-1-2-2-2-3-2l-4 2v5l1 2h1zm-1-8v-1h1l1-1c-1-1-4 0-3 2h1zm28 17l-5-2v-9c1-3 3-4 6-4l4 1 1 1-2 1-4-1-3 3v3c0 3 0 4 2 4l2 1 3-1 2-2-1-1h-1l-1-1-1-1 3-1 2 1 1 2c0 4-1 5-3 6h-5zm39 0l-4-2v-4-3c1-2 3-3 5-3h3l1 2h-2c-1-1-3 0-4 1l-2 4 1 2 4 1 2-1c1-1 0-2-1-2l-2-1 1-1h2c2 0 2 0 2 3 0 2 0 3-2 4h-4zm14 0c-3-1-4-2-5-5 0-3 1-5 3-6l3-1h2c2 1 2 2 1 2h-5l-1 1-1 3 1 3 3 1h2l1-2-1-1-1-1h-1 1l2-1h2v3l-1 3c-1 1-3 2-5 1zm-41 0l-1-12h2v10h3l2 1v1h-6zm12 0l-1-1c-2-2-3-4-2-7l3-3 3-1c3 0 4 2 4 5v3l-2 4h-5zm4-2l2-5-2-3h-3l-2 2v3l1 3h4zm34 2v-6-6h2v11l-1 1h-1zM30 73c-1 0-1-1 1-4l2-4 4-10h2c1 1 3 4 4 9l2 5 1 4h-2l-1-2-1-2-1-1h-3l-4 1-1 2c-1 3-2 3-3 2zm10-8v-3l-2-1-2 1c0 2 0 3 2 3h2zm34 8c-2 0-2 0-2-7v-6h1v-1h3c4 0 6 0 5 1l-3 1-3 1-1 1c0 2 0 2 3 2l2 1-2 1-3 1 1 3h3l3 1c1 1 0 1-4 1h-3zm-24 0l-1-7 1-7h1l1 6v6h3l3 1v1h-8zm11 0v-7-7h1l1 6v5l3 1h3v2h-8zm37 0v-3l-1-3c-1-1-1 0-3 2-2 4-2 4-4 0-1-2-2-3-3-2l-1 3-1 3-1-7 1-7h2l2 3 2 3 1 2 4-5 1-3h2l1 7-1 7h-1zM10 62c-3-1-6-2-8-5l-2-7 2-7c3-4 8-6 13-5l6 3c2 3 3 5 3 9 0 3-1 6-3 8-2 3-5 4-8 4h-3zm5-1c2 0 4-1 5-3l4-6v-4l-4-6c-2-3-4-4-8-4l-3 1c-3 1-6 3-8 7v8c2 4 5 6 8 7h6zm-5 0c-2 0-5-2-6-4-2-1-3-4-3-5a11 11 0 0 1 22-6v8c-1 3-4 6-7 7h-6zm-1-3l2-1h-1l-3-1-1 1 1 1h2zm10 0l-7-3-6-1v1a208 208 0 0 0 13 3zm-2-2l2-1-1-1-5 1 3 1h1zm-6-3l1-2h1v2h1l3-1v-2-3l-1-1v1h-2l-2-5-1 1-1 4-1-2v-1l-1 1-1 3c0 3 0 4 2 5h2zm-4-7v-1l-1 1h1zm8-1v-1h-1l1 2v-1zm31 4V35l3-1c3 0 4 1 5 2 2 0 2 2 2 4v2l-1 2 1 2 1 3h-1l-2-2-2-3-4 1v4h-2zm6-8h1l1-2c0-2-1-2-4-2-2 0-2 0-2 2 0 3 1 3 4 2zm13 8c-2-1-4-2-4-4v-7c1-2 3-3 6-3h3c2 1 3 2 3 5v4l-1 2c-1 2-4 3-7 3zm3-3c2 0 2-1 3-3v-3c0-2-1-3-2-3h-4l-2 2v5c0 2 3 3 5 2zm22 3v-2l6-8v-2h-4l-3-1 1-1a53 53 0 0 1 9 0l1 2-4 6-2 2v1l3 1h3v1l-5 1h-5zm-54-1l-1-7v-7l-3-1-2-1 6-1 6 1c1 1 0 1-2 1l-2 1v7l-1 7h-1zm45 0l-1-5v-6h-2l-2-2 5-1c4 0 5 1 5 2h-2l-1 1-1 6v5h-1zM8 27a12 12 0 0 1-7-16c2-4 7-7 11-7s8 2 10 5 3 7 2 10c-1 4-5 8-9 9l-7-1zm6 0c7-1 11-7 10-13l-4-6c-3-4-9-5-13-2l-5 5c-2 4-2 10 2 13 3 3 7 4 10 3zm-5 0c-5-2-8-5-8-10 0-3 1-7 3-9a11 11 0 0 1 18 13c-1 3-4 5-7 6H9zm4-2l1-2 1-1h3v-4h-1l-1 1-1-1 2-2 2 2v1l2-3-2-4h-2c-2 1-2 1-2-1l-2-4-1-1v1l-2 5-1 1-2-1c-1 0-2 0-3 2l-1 2 2 2 1 1v-1c0-1 0-2 2-2l1 1v1l-1 1-1-1v4h2l1 1 2 3 1-1zm0-2v-3-1l1 3-1 1c0 1 0 1 0 0zm-2 0v-3 3c0 1 0 1 0 0zm1-5h0s-1 0 0 0zm-1-1v-2l-1-2 2-4-1 2v4l1 2h-1zm9-1c0-2-1-2-2-3h-1 1c1 0 2 1 2 3v1-1zm-7 0v-1-3c0-2 0-2 1-1l-1 4v1zm-8-2l3-1H7l-2 1c-1 1-1 1 0 0zm57 11l1-4 2-4 3-8 1-1h2l1 2a90 90 0 0 1 5 14h-1l-2-2-1-2h-3c-4 0-4 0-5 2l-2 3h-1zm9-8v-3l-1-1-2 1c-1 1 0 3 1 3h2zm-21 7l-1-7c0-7 0-8 2-8l8-1v2l-3 1h-4v4h2c2 0 3 1 3 2l-3 1c-2 0-2 0-2 3v3h-2zm33 0h-2v-7c-1-10-1-9 3-9s6 0 7 2c2 2 2 4 2 8l-1 4c0 1-1 2-3 2h-6zm6-2l2-3-1-6c-1-2-2-3-4-3-3 0-3 1-3 6l1 6h5zm-58 2l-1-10 1-9 5-1 7 1 3 4c0 3-1 5-4 6l-5 1h-3v4l-1 4h-2zm10-12l2-2-2-3h-7v5l3 1 4-1zm57 12l-1-9 1-6 1-1 1 8-1 8h-1z"/></svg>